<svg width="28" height="32" viewBox="0 0 28 32" fill="none" xmlns="http://www.w3.org/2000/svg">
<g id="Group 5">
<g id="Clip path group">
<mask id="mask0_83_1827" style="mask-type:luminance" maskUnits="userSpaceOnUse" x="23" y="13" width="6" height="3">
<g id="f227f6fa20">
<path id="Vector" d="M23.1846 13.8835H28.0003V15.4351H23.1846V13.8835Z" fill="white"/>
</g>
</mask>
<g mask="url(#mask0_83_1827)">
<g id="Group">
<path id="Vector_2" d="M27.4572 15.3233H23.7701C23.4563 15.3233 23.2026 15.0809 23.2026 14.7809C23.2026 14.4839 23.4563 14.2415 23.7701 14.2415H27.4572C27.7679 14.2415 28.0215 14.4839 28.0215 14.7809C28.0215 15.0809 27.7679 15.3233 27.4572 15.3233Z" fill="#7F56D9"/>
</g>
</g>
</g>
<g id="Clip path group_2">
<mask id="mask1_83_1827" style="mask-type:luminance" maskUnits="userSpaceOnUse" x="13" y="0" width="3" height="6">
<g id="645e7b920f">
<path id="Vector_3" d="M13.4448 0H15.8796V5.35169H13.4448V0Z" fill="white"/>
</g>
</mask>
<g mask="url(#mask1_83_1827)">
<g id="Group_2">
<path id="Vector_4" d="M14.5831 4.68491C14.2693 4.68491 14.0156 4.44248 14.0156 4.14247V0.630232C14.0156 0.330223 14.2693 0.0908203 14.5831 0.0908203C14.897 0.0908203 15.1506 0.330223 15.1506 0.630232V4.14247C15.1506 4.44248 14.897 4.68491 14.5831 4.68491Z" fill="#7F56D9"/>
</g>
</g>
</g>
<path id="Vector_5" d="M23.1408 10.2418C22.9157 10.2418 22.7033 10.1115 22.6145 9.89933C22.5004 9.62053 22.643 9.3084 22.9347 9.19627L26.1906 7.97805C26.4823 7.86896 26.812 8.00532 26.9293 8.28109C27.0435 8.55989 26.8976 8.87202 26.6091 8.98415L23.35 10.2024C23.2803 10.2296 23.2105 10.2418 23.1408 10.2418Z" fill="#7F56D9"/>
<path id="Vector_6" d="M20.1056 6.21384C19.9914 6.21384 19.8773 6.18354 19.779 6.11384C19.5222 5.94111 19.462 5.60473 19.6427 5.3623L21.7763 2.49553C21.9602 2.2531 22.3121 2.19553 22.5689 2.36826C22.8225 2.54099 22.8828 2.87737 22.7021 3.12283L20.5684 5.98656C20.4575 6.13505 20.2831 6.21384 20.1056 6.21384Z" fill="#7F56D9"/>
<g id="Clip path group_3">
<mask id="mask2_83_1827" style="mask-type:luminance" maskUnits="userSpaceOnUse" x="2" y="6" width="25" height="26">
<g id="a8f9841d84">
<path id="Vector_7" d="M2.08252 6.12646H26.4306V32.0001H2.08252V6.12646Z" fill="white"/>
</g>
</mask>
<g mask="url(#mask2_83_1827)">
<g id="Group_3">
<path id="Vector_8" d="M17.1104 24.0853C15.5855 22.4489 21.9483 21.1216 21.9483 14.7819C21.9483 6.28773 15.4618 6.18469 14.0954 6.18469C12.7322 6.18469 6.24569 6.93623 6.24569 14.7819C6.24569 21.1216 12.6085 22.4489 11.0836 24.0853C9.07362 26.2399 2.12109 23.5247 2.12109 31.8946H26.0729C26.0729 23.5247 19.1204 26.2399 17.1104 24.0853ZM14.0859 16.9487C13.3124 16.5396 11.2104 15.2092 11.09 13.4758C10.9473 11.4515 13.6769 11.7212 14.0859 13.2213C14.4981 11.7212 17.2277 11.4515 17.085 13.4758C16.9646 15.2092 14.8626 16.5396 14.0859 16.9487Z" fill="#7F56D9"/>
</g>
</g>
</g>
<g id="Clip path group_4">
<mask id="mask3_83_1827" style="mask-type:luminance" maskUnits="userSpaceOnUse" x="0" y="13" width="6" height="3">
<g id="505fa324cf">
<path id="Vector_9" d="M0 13.8837H5.32932V15.4352H0V13.8837Z" fill="white"/>
</g>
</mask>
<g mask="url(#mask3_83_1827)">
<g id="Group_4">
<path id="Vector_10" d="M4.26776 15.3236H0.580672C0.26681 15.3236 0.0131836 15.0811 0.0131836 14.7811C0.0131836 14.4841 0.26681 14.2417 0.580672 14.2417H4.26776C4.58163 14.2417 4.83525 14.4841 4.83525 14.7811C4.83525 15.0811 4.58163 15.3236 4.26776 15.3236Z" fill="#7F56D9"/>
</g>
</g>
</g>
<path id="Vector_11" d="M4.89451 10.2415C4.82794 10.2415 4.75502 10.2294 4.68844 10.2052L1.42935 8.98393C1.13768 8.87484 0.995011 8.55967 1.10914 8.28088C1.22644 8.00511 1.55299 7.86571 1.84466 7.97784L5.10375 9.19909C5.39542 9.30818 5.53809 9.62032 5.42396 9.89911C5.33519 10.1112 5.12278 10.2415 4.89451 10.2415Z" fill="#7F56D9"/>
<path id="Vector_12" d="M9.04748 5.86008C8.86995 5.86008 8.69558 5.78129 8.58462 5.6328L6.45099 2.76907C6.27028 2.52361 6.33051 2.18723 6.58414 2.0145C6.84094 1.84176 7.19601 1.89934 7.37672 2.14178L9.51035 5.00854C9.69106 5.25097 9.63082 5.58735 9.37403 5.76008C9.27575 5.82978 9.16162 5.86008 9.04748 5.86008Z" fill="#7F56D9"/>
</g>
</svg>
